<?xml version="1.0" standalone="no"?>
<!DOCTYPE svg PUBLIC "-//W3C//DTD SVG 20010904//EN"
 "http://www.w3.org/TR/2001/REC-SVG-20010904/DTD/svg10.dtd">
<svg version="1.0" xmlns="http://www.w3.org/2000/svg"
 width="800.000000pt" height="800.000000pt" viewBox="0 0 800.000000 800.000000"
 preserveAspectRatio="xMidYMid meet">

<g transform="translate(0.000000,800.000000) scale(0.100000,-0.100000)"
fill="#000000" stroke="none">
<path d="M3540 6919 c-820 -42 -1536 -233 -1983 -529 -155 -102 -298 -247
-355 -360 -73 -144 -74 -155 -79 -526 -7 -482 3 -554 103 -725 52 -89 202
-234 329 -318 631 -416 1782 -614 2965 -510 454 40 933 145 1285 281 142 55
384 183 489 258 175 126 303 279 357 430 24 65 24 67 24 510 l0 445 -27 68
c-41 102 -93 179 -179 267 -484 492 -1651 775 -2929 709z m817 -164 c680 -51
1200 -177 1638 -397 55 -27 107 -55 115 -62 8 -7 27 -18 43 -26 50 -25 201
-155 250 -215 26 -33 62 -89 80 -125 l32 -65 0 -435 0 -435 -36 -75 c-77 -160
-253 -313 -500 -436 -720 -359 -1900 -493 -2984 -339 -458 65 -924 205 -1210
362 -259 143 -391 267 -473 441 l-27 57 0 415 c0 402 1 417 22 472 167 437
1053 790 2173 867 208 14 669 12 877 -4z"/>
<path d="M1157 4488 c-9 -7 -20 -24 -25 -38 -5 -14 -10 -169 -11 -345 -2 -400
6 -464 75 -603 41 -83 62 -111 149 -197 55 -56 138 -128 185 -160 736 -508
2296 -699 3590 -439 407 82 794 218 1050 370 240 142 414 326 482 509 21 57
22 77 26 460 4 397 3 401 -18 428 -15 19 -31 27 -51 27 -61 0 -79 -26 -94
-135 -25 -184 -200 -371 -495 -526 -850 -449 -2382 -558 -3560 -253 -363 94
-710 246 -900 393 -164 128 -247 250 -271 404 -14 85 -37 117 -84 117 -17 0
-39 -6 -48 -12z m206 -541 c226 -223 590 -396 1112 -526 623 -156 1369 -203
2085 -131 704 71 1307 249 1680 495 99 66 214 161 250 208 12 15 25 27 28 27
4 0 6 -73 5 -162 -2 -146 -5 -170 -28 -233 -134 -371 -811 -689 -1740 -820
-381 -53 -934 -70 -1309 -41 -364 29 -667 76 -946 147 -655 167 -1089 429
-1191 720 -19 53 -23 91 -27 227 -2 89 -2 162 1 162 3 0 39 -33 80 -73z"/>
<path d="M1144 3053 c-17 -26 -19 -55 -22 -343 -3 -323 6 -467 35 -545 19 -50
46 -108 54 -115 3 -3 12 -16 19 -30 23 -44 102 -133 171 -193 299 -260 791
-458 1394 -562 55 -9 122 -21 148 -26 94 -17 415 -49 602 -59 828 -44 1628 61
2247 296 449 170 759 419 860 689 21 58 22 75 26 464 l3 403 -22 24 c-29 31
-78 32 -107 1 -13 -14 -25 -46 -31 -86 -26 -162 -111 -286 -292 -423 -587
-445 -1979 -667 -3149 -502 -554 78 -956 194 -1293 371 -308 163 -477 349
-502 556 -10 76 -34 107 -85 107 -30 0 -41 -6 -56 -27z m220 -527 c139 -137
321 -249 583 -360 201 -84 570 -188 821 -230 50 -9 131 -23 180 -31 48 -8 133
-20 190 -25 56 -6 148 -15 204 -21 389 -40 1142 -17 1513 45 44 8 127 22 185
31 132 22 433 97 565 140 362 118 663 279 837 448 42 41 79 73 81 71 5 -5 -1
-282 -8 -325 -19 -134 -153 -300 -340 -424 -492 -324 -1334 -515 -2265 -515
-816 0 -1540 138 -2055 390 -173 85 -272 150 -374 246 -90 84 -138 151 -171
239 -19 51 -24 85 -28 228 -2 92 -2 167 1 167 3 0 39 -33 81 -74z"/>
</g>
</svg>
